<?xml version="1.0" standalone="no"?>
<!DOCTYPE svg PUBLIC "-//W3C//DTD SVG 20010904//EN"
 "http://www.w3.org/TR/2001/REC-SVG-20010904/DTD/svg10.dtd">
<svg version="1.0" xmlns="http://www.w3.org/2000/svg"
 width="300.000000pt" height="300.000000pt" viewBox="0 0 300.000000 300.000000"
 preserveAspectRatio="xMidYMid meet">
<metadata>
Created by potrace 1.10, written by Peter Selinger 2001-2011
</metadata>
<g transform="translate(0.000000,300.000000) scale(0.050000,-0.050000)"
fill="#ff0000" stroke="none">
<path d="M2600 5367 c-790 -154 -1401 -609 -1748 -1300 -40 -79 -72 -156 -72
-171 0 -16 -8 -37 -17 -47 -100 -112 -192 -746 -134 -929 l28 -90 3 190 c5
383 33 364 44 -30 10 -368 12 -385 75 -550 35 -93 74 -195 85 -225 11 -30 26
-55 34 -55 8 0 27 -46 42 -102 16 -56 44 -113 64 -127 20 -13 30 -30 23 -37
-6 -7 1 -25 16 -41 15 -16 72 -93 126 -171 55 -78 107 -142 116 -142 10 0 12
-9 5 -20 -7 -11 -4 -20 6 -20 11 0 24 -19 30 -43 8 -28 22 -38 43 -30 22 8 38
-3 50 -33 9 -25 58 -72 109 -104 51 -32 92 -65 92 -74 0 -9 14 -16 31 -16 17
0 26 -9 19 -20 -7 -11 2 -20 19 -20 17 0 42 -18 56 -40 13 -22 43 -40 66 -40
22 0 52 -11 65 -24 13 -13 24 -17 24 -9 0 8 20 -4 45 -27 24 -23 65 -46 90
-51 25 -5 68 -14 95 -19 28 -6 50 -24 50 -40 0 -29 32 -39 106 -31 20 2 47 -5
60 -16 58 -47 435 -95 704 -89 325 8 360 11 385 30 13 11 64 17 113 13 49 -4
85 -3 80 1 -21 22 59 81 83 61 17 -14 34 -12 55 10 16 16 54 34 84 39 29 6 66
20 81 33 15 12 36 17 46 11 11 -7 23 -5 26 4 4 9 41 36 82 61 84 52 97 88 30
82 -85 -7 -81 1 57 104 302 226 489 435 674 750 10 17 -8 20 -61 13 -139 -19
-234 157 -144 265 48 58 210 37 254 -32 l39 -62 53 149 c88 250 115 420 117
738 1 162 9 290 18 285 27 -17 40 71 34 236 -3 85 -4 155 -2 155 19 0 62 -125
107 -309 47 -191 56 -213 76 -176 59 110 -68 585 -243 905 -487 893 -1542
1413 -2494 1227z m610 -1227 l0 -550 -165 -6 -165 -6 0 562 0 562 165 -6 165
-6 0 -550z m-1396 -1057 c295 -150 337 -753 70 -997 -59 -54 -66 -69 -45 -95
38 -45 101 -39 101 9 0 29 13 40 50 40 66 0 75 -171 12 -228 -102 -92 -293
-46 -356 87 -34 72 -42 77 -148 86 -293 27 -418 201 -418 581 0 335 104 506
340 557 108 23 310 3 394 -40z m3077 16 c38 -31 38 -175 0 -363 -17 -80 -35
-189 -42 -241 -11 -94 -12 -95 -86 -95 l-74 0 -36 215 c-20 118 -44 258 -54
310 -22 111 5 188 69 202 66 15 191 -1 223 -28z m-2371 -438 l0 -458 53 -42
c64 -50 172 -53 219 -6 19 19 40 32 47 28 38 -23 59 161 60 533 l1 407 65 -7
65 -6 -1 -410 c-1 -298 -9 -432 -29 -490 -16 -44 -26 -87 -24 -96 3 -10 -4
-11 -16 -4 -11 7 -20 4 -20 -7 0 -98 -392 -157 -555 -84 -195 89 -212 137
-221 637 -9 503 -25 464 185 464 l171 0 0 -459z m1000 -102 l0 -561 -165 6
-165 6 -5 555 -6 555 171 0 170 0 0 -561z m965 511 c13 -67 7 -70 -138 -70
l-127 0 0 -501 0 -501 -183 6 -184 6 5 495 5 495 -142 0 -141 0 0 60 0 60 448
0 447 0 10 -50z"/>
<path d="M1481 2985 c-82 -91 -81 -708 0 -664 54 28 121 23 161 -13 75 -67 82
590 7 673 -43 47 -128 50 -168 4z"/>
<path d="M1502 2192 c-37 -44 -13 -92 47 -92 60 0 64 20 15 80 -32 40 -38 41
-62 12z"/>
</g>
</svg>
