<?xml version="1.0" standalone="no"?>
<!DOCTYPE svg PUBLIC "-//W3C//DTD SVG 20010904//EN"
 "http://www.w3.org/TR/2001/REC-SVG-20010904/DTD/svg10.dtd">
<svg version="1.0" xmlns="http://www.w3.org/2000/svg"
 width="245.000000pt" height="117.000000pt" viewBox="0 0 245.000000 117.000000"
 preserveAspectRatio="xMidYMid meet">
<metadata>
Created by potrace 1.10, written by Peter Selinger 2001-2011
</metadata>
<g transform="translate(0.000000,117.000000) scale(0.050000,-0.050000)"
fill="#000000" stroke="none">
<path d="M2370 2236 c-6 -25 -9 -514 -6 -1086 l6 -1040 60 0 60 0 0 1080 0
1080 -54 6 c-43 5 -57 -3 -66 -40z"/>
<path d="M2946 2121 c-174 -106 -164 -349 18 -443 182 -93 355 16 355 222 0
213 -196 329 -373 221z"/>
<path d="M4314 697 c-201 -150 -111 -457 135 -457 166 0 249 75 250 226 2 228
-214 358 -385 231z"/>
</g>
</svg>
