<?xml version="1.0" standalone="no"?>
<!DOCTYPE svg PUBLIC "-//W3C//DTD SVG 20010904//EN"
 "http://www.w3.org/TR/2001/REC-SVG-20010904/DTD/svg10.dtd">
<svg version="1.0" xmlns="http://www.w3.org/2000/svg"
 width="243.000000pt" height="118.000000pt" viewBox="0 0 243.000000 118.000000"
 preserveAspectRatio="xMidYMid meet">
<metadata>
Created by potrace 1.10, written by Peter Selinger 2001-2011
</metadata>
<g transform="translate(0.000000,118.000000) scale(0.050000,-0.050000)"
fill="#000000" stroke="none">
<path d="M2334 2268 c-8 -8 -14 -495 -14 -1081 l0 -1067 70 0 70 0 -5 1075 -5
1075 -51 6 c-28 3 -57 -1 -65 -8z"/>
<path d="M2944 2139 c-198 -79 -218 -360 -32 -449 177 -84 368 30 368 220 0
166 -183 291 -336 229z"/>
<path d="M4339 2144 c-214 -101 -235 -342 -39 -447 181 -97 343 3 348 216 3
164 -172 296 -309 231z"/>
<path d="M3621 1425 c-134 -69 -175 -218 -98 -362 87 -163 298 -161 398 3 128
209 -88 468 -300 359z"/>
<path d="M2924 706 c-93 -51 -153 -162 -136 -252 56 -297 492 -265 492 37 0
186 -194 304 -356 215z"/>
<path d="M4310 710 c-144 -77 -188 -217 -109 -346 112 -185 407 -139 445 69
39 205 -162 370 -336 277z"/>
</g>
</svg>
