<?xml version="1.0" standalone="no"?>
<!DOCTYPE svg PUBLIC "-//W3C//DTD SVG 20010904//EN"
 "http://www.w3.org/TR/2001/REC-SVG-20010904/DTD/svg10.dtd">
<svg version="1.0" xmlns="http://www.w3.org/2000/svg"
 width="239.000000pt" height="111.000000pt" viewBox="0 0 239.000000 111.000000"
 preserveAspectRatio="xMidYMid meet">
<metadata>
Created by potrace 1.10, written by Peter Selinger 2001-2011
</metadata>
<g transform="translate(0.000000,111.000000) scale(0.050000,-0.050000)"
fill="#000000" stroke="none">
<path d="M2290 2156 c-6 -25 -9 -514 -6 -1086 l6 -1040 60 0 60 0 0 1080 0
1080 -54 6 c-43 5 -57 -3 -66 -40z"/>
<path d="M2854 2017 c-256 -191 11 -596 273 -413 96 68 112 97 112 210 2 205
-224 323 -385 203z"/>
<path d="M3558 2034 c-147 -111 -149 -319 -6 -432 167 -132 446 83 369 285
-54 142 -260 226 -363 147z"/>
<path d="M4227 2005 c-141 -126 -133 -293 19 -392 179 -116 374 -10 374 203 0
217 -235 330 -393 189z"/>
<path d="M2885 620 c-120 -73 -173 -207 -123 -306 96 -187 259 -222 409 -90
209 183 -49 541 -286 396z"/>
<path d="M3590 636 c-187 -104 -199 -345 -23 -454 132 -81 301 -10 353 148 62
188 -165 399 -330 306z"/>
<path d="M4265 620 c-155 -94 -185 -246 -74 -376 163 -190 429 -91 429 161 0
193 -196 312 -355 215z"/>
</g>
</svg>
