<?xml version="1.0" standalone="no"?>
<!DOCTYPE svg PUBLIC "-//W3C//DTD SVG 20010904//EN"
 "http://www.w3.org/TR/2001/REC-SVG-20010904/DTD/svg10.dtd">
<svg version="1.0" xmlns="http://www.w3.org/2000/svg"
 width="239.000000pt" height="113.000000pt" viewBox="0 0 239.000000 113.000000"
 preserveAspectRatio="xMidYMid meet">
<metadata>
Created by potrace 1.10, written by Peter Selinger 2001-2011
</metadata>
<g transform="translate(0.000000,113.000000) scale(0.050000,-0.050000)"
fill="#000000" stroke="none">
<path d="M2285 2227 c-50 -20 -35 -2167 15 -2167 22 0 40 11 40 25 0 14 1 493
2 1065 1 572 1 1051 0 1065 -2 26 -15 29 -57 12z"/>
<path d="M2796 2059 c-94 -71 -121 -267 -50 -360 174 -225 528 -47 452 227
-43 159 -267 233 -402 133z"/>
<path d="M836 1349 c-200 -131 -109 -454 127 -452 287 2 369 344 113 472 -86
43 -153 37 -240 -20z"/>
<path d="M4217 670 c-74 -41 -137 -151 -137 -240 0 -222 317 -336 450 -161
166 216 -78 528 -313 401z"/>
</g>
</svg>
