<?xml version="1.0" standalone="no"?>
<!DOCTYPE svg PUBLIC "-//W3C//DTD SVG 20010904//EN"
 "http://www.w3.org/TR/2001/REC-SVG-20010904/DTD/svg10.dtd">
<svg version="1.0" xmlns="http://www.w3.org/2000/svg"
 width="237.000000pt" height="120.000000pt" viewBox="0 0 237.000000 120.000000"
 preserveAspectRatio="xMidYMid meet">
<metadata>
Created by potrace 1.10, written by Peter Selinger 2001-2011
</metadata>
<g transform="translate(0.000000,120.000000) scale(0.050000,-0.050000)"
fill="#000000" stroke="none">
<path d="M2325 2266 c-50 -18 -35 -2146 15 -2146 24 0 41 14 41 35 9 219 -7
2098 -17 2108 -8 6 -25 8 -39 3z"/>
<path d="M2901 2144 c-250 -123 -189 -484 82 -484 301 0 369 374 88 491 -85
35 -84 35 -170 -7z"/>
<path d="M1010 1447 c-22 -5 -60 -13 -84 -18 -207 -44 -192 -389 22 -477 132
-55 332 94 332 246 0 96 -158 280 -223 260 -4 -2 -25 -6 -47 -11z"/>
<path d="M3601 1434 c-250 -86 -192 -455 79 -503 94 -17 234 114 254 238 28
171 -163 323 -333 265z"/>
<path d="M4261 716 c-114 -61 -175 -236 -118 -341 51 -95 235 -185 282 -138
12 12 39 23 58 23 65 0 137 123 137 233 0 188 -196 309 -359 223z"/>
</g>
</svg>
