<?xml version="1.0" standalone="no"?>
<!DOCTYPE svg PUBLIC "-//W3C//DTD SVG 20010904//EN"
 "http://www.w3.org/TR/2001/REC-SVG-20010904/DTD/svg10.dtd">
<svg version="1.0" xmlns="http://www.w3.org/2000/svg"
 width="239.000000pt" height="114.000000pt" viewBox="0 0 239.000000 114.000000"
 preserveAspectRatio="xMidYMid meet">
<metadata>
Created by potrace 1.10, written by Peter Selinger 2001-2011
</metadata>
<g transform="translate(0.000000,114.000000) scale(0.050000,-0.050000)"
fill="#000000" stroke="none">
<path d="M2293 2267 c-38 -38 -14 -2167 25 -2167 55 0 53 -38 46 1115 -7 1062
-11 1112 -71 1052z"/>
<path d="M2811 2069 c-63 -63 -71 -82 -70 -175 1 -269 331 -342 456 -100 121
232 -200 461 -386 275z"/>
<path d="M4193 2072 c-113 -114 -100 -347 23 -384 19 -6 50 -19 69 -29 125
-67 315 69 315 226 0 225 -253 341 -407 187z"/>
<path d="M859 1395 c-135 -91 -148 -261 -31 -405 142 -176 477 24 411 245 -56
185 -232 259 -380 160z"/>
<path d="M2811 649 c-117 -117 -95 -312 44 -386 112 -60 279 -11 336 99 125
242 -188 479 -380 287z"/>
<path d="M4193 652 c-163 -163 -63 -412 166 -412 224 0 322 243 163 402 -107
108 -227 112 -329 10z"/>
</g>
</svg>
