<?xml version="1.0" standalone="no"?>
<!DOCTYPE svg PUBLIC "-//W3C//DTD SVG 20010904//EN"
 "http://www.w3.org/TR/2001/REC-SVG-20010904/DTD/svg10.dtd">
<svg version="1.0" xmlns="http://www.w3.org/2000/svg"
 width="255.000000pt" height="129.000000pt" viewBox="0 0 255.000000 129.000000"
 preserveAspectRatio="xMidYMid meet">
<metadata>
Created by potrace 1.10, written by Peter Selinger 2001-2011
</metadata>
<g transform="translate(0.000000,129.000000) scale(0.050000,-0.050000)"
fill="#000000" stroke="none">
<path d="M2453 2407 c-37 -38 -14 -2245 24 -2266 63 -33 63 -30 63 1142 0
1089 -2 1137 -37 1137 -20 0 -42 -6 -50 -13z"/>
<path d="M3078 2280 c-234 -124 -175 -475 83 -494 303 -23 412 338 147 489
-95 54 -136 55 -230 5z"/>
<path d="M4554 2286 c-105 -55 -220 -346 -136 -346 9 0 22 -18 28 -39 36 -139
324 -156 440 -26 169 190 -105 531 -332 411z"/>
<path d="M1000 1525 c-271 -49 -193 -545 86 -545 278 0 367 427 110 529 -77
31 -104 33 -196 16z"/>
<path d="M3800 1514 c-27 -13 -69 -61 -94 -104 -160 -283 230 -553 419 -290
167 232 -72 522 -325 394z"/>
<path d="M3106 778 c-191 -55 -231 -368 -60 -468 238 -141 524 120 379 346
-83 130 -173 164 -319 122z"/>
<path d="M4570 775 c-144 -52 -213 -233 -141 -372 83 -162 329 -182 440 -35
161 210 -50 498 -299 407z"/>
</g>
</svg>
