<?xml version="1.0" standalone="no"?>
<!DOCTYPE svg PUBLIC "-//W3C//DTD SVG 20010904//EN"
 "http://www.w3.org/TR/2001/REC-SVG-20010904/DTD/svg10.dtd">
<svg version="1.0" xmlns="http://www.w3.org/2000/svg"
 width="256.000000pt" height="124.000000pt" viewBox="0 0 256.000000 124.000000"
 preserveAspectRatio="xMidYMid meet">
<metadata>
Created by potrace 1.10, written by Peter Selinger 2001-2011
</metadata>
<g transform="translate(0.000000,124.000000) scale(0.050000,-0.050000)"
fill="#000000" stroke="none">
<path d="M2461 2383 c-39 -74 -28 -2233 12 -2273 63 -63 67 11 62 1150 -5
1156 -11 1240 -74 1123z"/>
<path d="M3047 2238 c-81 -51 -134 -177 -117 -280 33 -196 306 -280 451 -140
225 216 -69 584 -334 420z"/>
<path d="M3828 2260 c-140 -56 -206 -248 -128 -375 117 -192 363 -184 466 15
103 202 -126 446 -338 360z"/>
<path d="M4568 2262 c-200 -86 -216 -482 -20 -482 16 0 35 -9 42 -20 35 -56
238 9 303 98 147 196 -99 501 -325 404z"/>
<path d="M988 1488 c-266 -95 -194 -518 88 -518 298 0 387 380 120 510 -96 46
-99 46 -208 8z"/>
<path d="M3056 718 c-152 -113 -170 -290 -42 -412 123 -118 286 -102 393 39
172 225 -125 542 -351 373z"/>
<path d="M3800 734 c-183 -147 -185 -341 -5 -463 161 -110 354 -14 393 194 36
193 -243 387 -388 269z"/>
<path d="M4480 680 c-201 -201 8 -531 271 -431 276 106 203 511 -92 511 -89 0
-107 -8 -179 -80z"/>
</g>
</svg>
