<?xml version="1.0" standalone="no"?>
<!DOCTYPE svg PUBLIC "-//W3C//DTD SVG 20010904//EN"
 "http://www.w3.org/TR/2001/REC-SVG-20010904/DTD/svg10.dtd">
<svg version="1.0" xmlns="http://www.w3.org/2000/svg"
 width="258.000000pt" height="122.000000pt" viewBox="0 0 258.000000 122.000000"
 preserveAspectRatio="xMidYMid meet">
<metadata>
Created by potrace 1.10, written by Peter Selinger 2001-2011
</metadata>
<g transform="translate(0.000000,122.000000) scale(0.050000,-0.050000)"
fill="#000000" stroke="none">
<path d="M2560 1230 c0 -1137 0 -1150 40 -1150 36 0 40 13 40 135 3 2172 4
2165 -51 2165 -25 0 -29 -162 -29 -1150z"/>
<path d="M320 2224 c-215 -105 -169 -471 65 -515 255 -47 428 250 258 444 -99
113 -194 134 -323 71z"/>
<path d="M3160 2215 c-160 -108 -177 -293 -41 -436 130 -137 319 -92 415 98
114 226 -166 480 -374 338z"/>
<path d="M3950 1484 c-236 -80 -254 -398 -30 -514 218 -113 470 169 346 386
-55 95 -218 161 -316 128z"/>
<path d="M1860 736 c-203 -55 -276 -307 -135 -468 193 -221 575 49 433 306
-76 139 -178 194 -298 162z"/>
<path d="M4647 721 c-77 -33 -147 -159 -147 -264 0 -115 142 -286 225 -269 25
6 78 15 119 22 79 12 196 163 196 251 0 181 -227 331 -393 260z"/>
</g>
</svg>
