<?xml version="1.0" standalone="no"?>
<!DOCTYPE svg PUBLIC "-//W3C//DTD SVG 20010904//EN"
 "http://www.w3.org/TR/2001/REC-SVG-20010904/DTD/svg10.dtd">
<svg version="1.0" xmlns="http://www.w3.org/2000/svg"
 width="259.000000pt" height="125.000000pt" viewBox="0 0 259.000000 125.000000"
 preserveAspectRatio="xMidYMid meet">
<metadata>
Created by potrace 1.10, written by Peter Selinger 2001-2011
</metadata>
<g transform="translate(0.000000,125.000000) scale(0.050000,-0.050000)"
fill="#000000" stroke="none">
<path d="M2545 1275 c4 -1020 9 -1165 35 -1165 26 0 31 145 35 1165 5 1156 5
1165 -35 1165 -40 0 -40 -9 -35 -1165z"/>
<path d="M273 2256 c-139 -103 -145 -404 -9 -447 20 -6 36 -20 36 -30 0 -59
239 -18 307 52 228 234 -74 619 -334 425z"/>
<path d="M3146 2261 c-121 -74 -160 -232 -91 -368 146 -284 580 -60 444 229
-77 165 -219 221 -353 139z"/>
<path d="M4579 2222 c-168 -177 -68 -460 162 -459 185 1 315 211 231 373 -93
178 -269 216 -393 86z"/>
<path d="M1746 742 c-142 -103 -154 -309 -25 -433 186 -178 553 69 434 294
-103 195 -258 248 -409 139z"/>
<path d="M3100 698 c-173 -178 -68 -438 176 -438 244 0 337 302 143 464 -107
89 -216 80 -319 -26z"/>
<path d="M4604 739 c-202 -187 -112 -479 147 -479 246 0 338 331 131 478 -79
56 -218 57 -278 1z"/>
</g>
</svg>
