<?xml version="1.0" standalone="no"?>
<!DOCTYPE svg PUBLIC "-//W3C//DTD SVG 20010904//EN"
 "http://www.w3.org/TR/2001/REC-SVG-20010904/DTD/svg10.dtd">
<svg version="1.0" xmlns="http://www.w3.org/2000/svg"
 width="259.000000pt" height="127.000000pt" viewBox="0 0 259.000000 127.000000"
 preserveAspectRatio="xMidYMid meet">
<metadata>
Created by potrace 1.10, written by Peter Selinger 2001-2011
</metadata>
<g transform="translate(0.000000,127.000000) scale(0.050000,-0.050000)"
fill="#000000" stroke="none">
<path d="M2534 2427 c-41 -40 -15 -2287 26 -2287 40 0 40 10 35 1143 -5 1100
-10 1195 -61 1144z"/>
<path d="M288 2293 c-89 -50 -148 -151 -148 -255 0 -299 381 -377 510 -104
102 214 -158 472 -362 359z"/>
<path d="M3126 2267 c-293 -190 -43 -628 258 -452 107 63 163 218 111 310
-104 186 -228 233 -369 142z"/>
<path d="M4606 2281 c-125 -76 -166 -266 -86 -396 93 -153 348 -144 430 15
124 239 -125 514 -344 381z"/>
<path d="M3870 1521 c-174 -72 -195 -333 -36 -450 212 -154 519 113 388 339
-61 106 -233 160 -352 111z"/>
<path d="M1803 791 c-191 -65 -259 -339 -116 -466 64 -56 208 -98 238 -68 12
12 38 23 55 23 46 0 131 97 162 186 62 176 -158 387 -339 325z"/>
<path d="M3164 787 c-73 -16 -164 -158 -164 -257 0 -296 403 -366 501 -86 70
199 -117 389 -337 343z"/>
<path d="M4650 781 c-117 -33 -170 -116 -170 -268 0 -276 348 -346 475 -95
100 200 -88 425 -305 363z"/>
</g>
</svg>
