<?xml version="1.0" standalone="no"?>
<!DOCTYPE svg PUBLIC "-//W3C//DTD SVG 20010904//EN"
 "http://www.w3.org/TR/2001/REC-SVG-20010904/DTD/svg10.dtd">
<svg version="1.0" xmlns="http://www.w3.org/2000/svg"
 width="261.000000pt" height="121.000000pt" viewBox="0 0 261.000000 121.000000"
 preserveAspectRatio="xMidYMid meet">
<metadata>
Created by potrace 1.10, written by Peter Selinger 2001-2011
</metadata>
<g transform="translate(0.000000,121.000000) scale(0.050000,-0.050000)"
fill="#000000" stroke="none">
<path d="M2569 2335 c-28 -74 2 -2305 31 -2305 33 0 67 2223 34 2295 -18 41
-51 46 -65 10z"/>
<path d="M294 2177 c-207 -155 -108 -497 145 -497 213 0 335 196 241 389 -70
147 -262 200 -386 108z"/>
<path d="M3159 2187 c-162 -100 -154 -408 12 -484 193 -88 418 85 379 292 -33
176 -247 282 -391 192z"/>
<path d="M3890 2179 c-122 -78 -162 -230 -93 -359 103 -194 386 -178 478 26
104 231 -172 469 -385 333z"/>
<path d="M4634 2180 c-129 -102 -162 -227 -94 -360 95 -187 345 -184 460 5
134 219 -167 511 -366 355z"/>
<path d="M1840 706 c-240 -91 -255 -422 -22 -520 205 -87 456 149 357 337 -83
158 -213 228 -335 183z"/>
<path d="M3226 698 c-237 -69 -248 -437 -15 -514 301 -100 481 304 216 484
-82 56 -102 59 -201 30z"/>
<path d="M3912 675 c-304 -176 -89 -628 224 -471 161 81 205 225 112 369 -92
141 -208 177 -336 102z"/>
<path d="M4664 687 c-211 -106 -213 -411 -3 -495 220 -88 447 137 343 340 -82
161 -212 220 -340 155z"/>
</g>
</svg>
