<?xml version="1.0" standalone="no"?>
<!DOCTYPE svg PUBLIC "-//W3C//DTD SVG 20010904//EN"
 "http://www.w3.org/TR/2001/REC-SVG-20010904/DTD/svg10.dtd">
<svg version="1.0" xmlns="http://www.w3.org/2000/svg"
 width="259.000000pt" height="126.000000pt" viewBox="0 0 259.000000 126.000000"
 preserveAspectRatio="xMidYMid meet">
<metadata>
Created by potrace 1.10, written by Peter Selinger 2001-2011
</metadata>
<g transform="translate(0.000000,126.000000) scale(0.050000,-0.050000)"
fill="#000000" stroke="none">
<path d="M2500 1243 c0 -1145 1 -1169 52 -1149 52 20 41 2286 -12 2286 -40 0
-40 -13 -40 -1137z"/>
<path d="M265 2250 c-124 -54 -179 -224 -122 -381 54 -148 302 -182 426 -58
210 210 -31 558 -304 439z"/>
<path d="M3063 2200 c-182 -187 -87 -460 160 -460 288 0 380 349 132 500 -108
66 -202 54 -292 -40z"/>
<path d="M1006 1490 c-138 -63 -200 -254 -121 -370 116 -171 282 -203 407 -77
217 216 -10 571 -286 447z"/>
<path d="M3870 1487 c-104 -28 -208 -196 -179 -292 87 -290 387 -343 509 -91
106 220 -89 447 -330 383z"/>
<path d="M1748 741 c-233 -104 -206 -458 40 -514 270 -62 453 296 238 466
-108 84 -172 95 -278 48z"/>
<path d="M4608 741 c-270 -120 -202 -510 89 -510 309 0 384 366 104 509 -94
47 -88 47 -193 1z"/>
</g>
</svg>
