<?xml version="1.0" standalone="no"?>
<!DOCTYPE svg PUBLIC "-//W3C//DTD SVG 20010904//EN"
 "http://www.w3.org/TR/2001/REC-SVG-20010904/DTD/svg10.dtd">
<svg version="1.0" xmlns="http://www.w3.org/2000/svg"
 width="258.000000pt" height="125.000000pt" viewBox="0 0 258.000000 125.000000"
 preserveAspectRatio="xMidYMid meet">
<metadata>
Created by potrace 1.10, written by Peter Selinger 2001-2011
</metadata>
<g transform="translate(0.000000,125.000000) scale(0.050000,-0.050000)"
fill="#000000" stroke="none">
<path d="M2509 2415 c-28 -74 2 -2305 31 -2305 33 0 67 2243 34 2301 -20 36
-52 37 -65 4z"/>
<path d="M227 2253 c-130 -110 -144 -314 -29 -417 257 -229 599 115 374 376
-88 102 -250 121 -345 41z"/>
<path d="M3164 2285 c-91 -11 -184 -138 -184 -253 0 -176 174 -311 324 -252
319 127 204 543 -140 505z"/>
<path d="M4647 2287 c-41 -9 -102 -59 -162 -134 -41 -52 -31 -199 20 -273 138
-204 455 -102 455 146 0 109 -97 253 -170 254 -11 0 -38 4 -60 8 -22 4 -60 3
-83 -1z"/>
<path d="M1006 1506 c-90 -45 -187 -228 -151 -285 14 -22 25 -52 25 -67 0 -44
126 -149 195 -164 108 -22 182 6 246 95 172 236 -62 549 -315 421z"/>
<path d="M1694 737 c-255 -190 -33 -589 260 -467 195 82 223 335 51 470 -70
55 -235 54 -311 -3z"/>
<path d="M3104 744 c-123 -95 -156 -237 -82 -357 119 -193 388 -160 455 57 69
223 -196 436 -373 300z"/>
<path d="M4532 696 c-153 -178 -58 -436 161 -436 193 0 318 181 243 354 -81
186 -281 227 -404 82z"/>
</g>
</svg>
