<?xml version="1.0" standalone="no"?>
<!DOCTYPE svg PUBLIC "-//W3C//DTD SVG 20010904//EN"
 "http://www.w3.org/TR/2001/REC-SVG-20010904/DTD/svg10.dtd">
<svg version="1.0" xmlns="http://www.w3.org/2000/svg"
 width="260.000000pt" height="123.000000pt" viewBox="0 0 260.000000 123.000000"
 preserveAspectRatio="xMidYMid meet">
<metadata>
Created by potrace 1.10, written by Peter Selinger 2001-2011
</metadata>
<g transform="translate(0.000000,123.000000) scale(0.050000,-0.050000)"
fill="#000000" stroke="none">
<path d="M2529 2359 c-7 -11 -14 -529 -16 -1150 -3 -1235 -9 -1176 107 -1139
56 18 64 2277 8 2298 -47 18 -84 15 -99 -9z"/>
<path d="M307 2226 c-250 -124 -163 -504 116 -505 260 -2 359 272 164 454
-101 94 -168 107 -280 51z"/>
<path d="M3168 2222 c-248 -151 -174 -500 107 -501 114 -1 152 23 226 145 122
201 -135 476 -333 356z"/>
<path d="M4648 2231 c-173 -75 -215 -420 -56 -460 26 -6 48 -21 48 -31 0 -64
209 -19 284 62 191 205 -24 539 -276 429z"/>
<path d="M1040 1464 c-107 -52 -176 -200 -141 -300 112 -318 521 -265 521 68
0 208 -191 324 -380 232z"/>
<path d="M3910 1470 c-261 -115 -194 -510 87 -510 319 0 378 429 71 517 -95
27 -81 27 -158 -7z"/>
<path d="M1810 727 c-145 -77 -187 -164 -161 -337 37 -249 427 -244 510 7 63
192 -178 420 -349 330z"/>
<path d="M3202 727 c-281 -122 -233 -507 64 -510 255 -2 368 304 166 449 -56
40 -153 96 -159 92 -2 -1 -33 -15 -71 -31z"/>
<path d="M4647 720 c-123 -49 -194 -265 -129 -387 88 -163 367 -157 453 9 107
207 -113 463 -324 378z"/>
</g>
</svg>
