<?xml version="1.0" standalone="no"?>
<!DOCTYPE svg PUBLIC "-//W3C//DTD SVG 20010904//EN"
 "http://www.w3.org/TR/2001/REC-SVG-20010904/DTD/svg10.dtd">
<svg version="1.0" xmlns="http://www.w3.org/2000/svg"
 width="257.000000pt" height="124.000000pt" viewBox="0 0 257.000000 124.000000"
 preserveAspectRatio="xMidYMid meet">
<metadata>
Created by potrace 1.10, written by Peter Selinger 2001-2011
</metadata>
<g transform="translate(0.000000,124.000000) scale(0.050000,-0.050000)"
fill="#000000" stroke="none">
<path d="M2489 2375 c-36 -94 3 -2281 40 -2287 92 -13 91 -28 91 1162 0 1008
-3 1127 -32 1138 -50 19 -88 14 -99 -13z"/>
<path d="M258 2234 c-37 -25 -90 -88 -117 -140 l-48 -96 52 -107 c157 -321
606 -121 477 213 -62 161 -229 221 -364 130z"/>
<path d="M3128 2251 c-228 -99 -192 -459 51 -513 168 -38 321 92 321 272 0 79
-94 230 -144 230 -18 0 -39 9 -46 20 -17 28 -108 24 -182 -9z"/>
<path d="M3868 2252 c-247 -108 -201 -483 65 -522 218 -33 376 221 257 410
-77 121 -201 164 -322 112z"/>
<path d="M4585 2240 c-140 -85 -184 -255 -100 -382 117 -174 355 -172 443 4
121 242 -124 512 -343 378z"/>
<path d="M1050 1504 c-146 -49 -247 -237 -188 -347 123 -230 326 -259 474 -66
154 200 -50 492 -286 413z"/>
<path d="M1687 691 c-151 -147 -115 -363 77 -463 180 -93 423 122 357 316 -72
211 -291 286 -434 147z"/>
<path d="M3128 741 c-156 -64 -206 -320 -83 -433 131 -120 248 -130 362 -31
221 193 -7 573 -279 464z"/>
<path d="M3849 733 c-214 -97 -183 -432 46 -509 132 -44 310 67 337 211 40
210 -187 387 -383 298z"/>
<path d="M4608 741 c-263 -112 -185 -537 97 -526 242 10 344 324 159 492 -44
39 -197 60 -256 34z"/>
</g>
</svg>
