<?xml version="1.0" standalone="no"?>
<!DOCTYPE svg PUBLIC "-//W3C//DTD SVG 20010904//EN"
 "http://www.w3.org/TR/2001/REC-SVG-20010904/DTD/svg10.dtd">
<svg version="1.0" xmlns="http://www.w3.org/2000/svg"
 width="262.000000pt" height="125.000000pt" viewBox="0 0 262.000000 125.000000"
 preserveAspectRatio="xMidYMid meet">
<metadata>
Created by potrace 1.10, written by Peter Selinger 2001-2011
</metadata>
<g transform="translate(0.000000,125.000000) scale(0.050000,-0.050000)"
fill="#000000" stroke="none">
<path d="M2612 2383 c-23 -37 -16 -2287 7 -2310 57 -57 61 41 56 1167 -5 1113
-11 1227 -63 1143z"/>
<path d="M366 2227 c-117 -57 -172 -218 -114 -333 98 -194 264 -237 397 -103
215 214 -15 569 -283 436z"/>
<path d="M1828 2223 c-147 -92 -165 -305 -36 -434 136 -136 328 -76 408 127
81 205 -185 425 -372 307z"/>
<path d="M3211 2221 c-230 -152 -143 -502 124 -500 119 0 176 45 225 174 89
236 -149 458 -349 326z"/>
<path d="M4665 2208 c-165 -129 -164 -311 2 -437 116 -89 270 -56 351 76 145
235 -141 528 -353 361z"/>
<path d="M332 679 c-196 -172 -99 -459 155 -459 161 0 233 78 233 251 0 239
-219 357 -388 208z"/>
<path d="M1794 670 c-174 -174 -77 -450 160 -450 187 0 324 196 241 345 -108
193 -271 235 -401 105z"/>
<path d="M3160 660 c-72 -72 -80 -90 -80 -179 0 -298 395 -366 489 -84 88 265
-213 459 -409 263z"/>
<path d="M4691 714 c-250 -152 -165 -495 122 -494 195 1 305 197 215 379 -60
119 -233 178 -337 115z"/>
</g>
</svg>
