<?xml version="1.0" standalone="no"?>
<!DOCTYPE svg PUBLIC "-//W3C//DTD SVG 20010904//EN"
 "http://www.w3.org/TR/2001/REC-SVG-20010904/DTD/svg10.dtd">
<svg version="1.0" xmlns="http://www.w3.org/2000/svg"
 width="259.000000pt" height="126.000000pt" viewBox="0 0 259.000000 126.000000"
 preserveAspectRatio="xMidYMid meet">
<metadata>
Created by potrace 1.10, written by Peter Selinger 2001-2011
</metadata>
<g transform="translate(0.000000,126.000000) scale(0.050000,-0.050000)"
fill="#000000" stroke="none">
<path d="M2532 2383 c-8 -13 -20 -1983 -13 -2248 1 -21 17 -35 41 -35 40 0 40
10 35 1143 -5 1108 -11 1224 -63 1140z"/>
<path d="M348 2258 c-306 -88 -229 -548 86 -513 255 29 301 383 65 505 -64 33
-64 34 -151 8z"/>
<path d="M1825 2257 c-182 -41 -258 -268 -141 -421 162 -213 515 -33 439 223
-21 70 -161 224 -198 219 -8 -1 -53 -11 -100 -21z"/>
<path d="M3140 2238 c-160 -96 -196 -288 -79 -419 83 -93 293 -103 366 -18
202 234 -32 590 -287 437z"/>
<path d="M4621 2244 c-256 -126 -183 -505 97 -504 248 1 342 235 182 450 -65
87 -170 108 -279 54z"/>
<path d="M3867 1480 c-154 -62 -174 -393 -27 -461 17 -8 54 -25 83 -39 110
-51 273 59 316 214 54 199 -167 369 -372 286z"/>
<path d="M3191 740 c-260 -49 -257 -455 2 -509 216 -45 386 164 292 358 -65
133 -152 178 -294 151z"/>
<path d="M4620 725 c-152 -77 -200 -243 -110 -385 137 -217 470 -109 470 153
0 69 -82 223 -126 236 -93 29 -170 28 -234 -4z"/>
<path d="M255 695 c-214 -190 -65 -516 211 -461 123 24 214 184 182 320 -39
168 -269 250 -393 141z"/>
<path d="M1705 679 c-216 -211 21 -554 288 -416 162 83 185 270 52 419 -77 87
-249 85 -340 -3z"/>
</g>
</svg>
