<?xml version="1.0" standalone="no"?>
<!DOCTYPE svg PUBLIC "-//W3C//DTD SVG 20010904//EN"
 "http://www.w3.org/TR/2001/REC-SVG-20010904/DTD/svg10.dtd">
<svg version="1.0" xmlns="http://www.w3.org/2000/svg"
 width="260.000000pt" height="122.000000pt" viewBox="0 0 260.000000 122.000000"
 preserveAspectRatio="xMidYMid meet">
<metadata>
Created by potrace 1.10, written by Peter Selinger 2001-2011
</metadata>
<g transform="translate(0.000000,122.000000) scale(0.050000,-0.050000)"
fill="#000000" stroke="none">
<path d="M2530 2360 c-27 -43 -13 -2286 15 -2303 52 -32 55 44 50 1163 -5
1120 -11 1227 -65 1140z"/>
<path d="M336 2224 c-186 -22 -253 -424 -78 -477 17 -5 48 -18 67 -28 116 -63
285 36 323 187 47 193 -99 342 -312 318z"/>
<path d="M1805 2226 c-203 -39 -244 -486 -45 -486 21 0 43 -9 50 -20 34 -55
196 0 267 91 149 190 -28 461 -272 415z"/>
<path d="M3080 2160 c-220 -220 21 -560 300 -424 240 117 134 504 -138 504
-69 0 -95 -13 -162 -80z"/>
<path d="M3851 2201 c-32 -22 -75 -69 -94 -105 -167 -312 279 -554 463 -251
136 222 -151 499 -369 356z"/>
<path d="M4547 2150 c-145 -152 -110 -340 79 -425 287 -129 495 289 236 473
-105 75 -213 58 -315 -48z"/>
<path d="M3169 712 c-237 -104 -226 -441 17 -508 68 -19 98 -15 218 28 37 13
116 166 116 224 0 172 -203 321 -351 256z"/>
<path d="M3945 724 c-224 -22 -299 -394 -101 -496 254 -131 519 134 364 364
-76 113 -139 144 -263 132z"/>
<path d="M4620 707 c-187 -133 -217 -290 -83 -424 181 -181 443 -80 443 171 0
191 -225 349 -360 253z"/>
<path d="M251 658 c-93 -82 -123 -181 -85 -288 83 -238 421 -224 478 20 59
249 -208 431 -393 268z"/>
<path d="M1712 651 c-181 -182 -79 -451 171 -451 175 0 301 185 235 345 -76
184 -275 236 -406 106z"/>
</g>
</svg>
