<?xml version="1.0" standalone="no"?>
<!DOCTYPE svg PUBLIC "-//W3C//DTD SVG 20010904//EN"
 "http://www.w3.org/TR/2001/REC-SVG-20010904/DTD/svg10.dtd">
<svg version="1.0" xmlns="http://www.w3.org/2000/svg"
 width="258.000000pt" height="126.000000pt" viewBox="0 0 258.000000 126.000000"
 preserveAspectRatio="xMidYMid meet">
<metadata>
Created by potrace 1.10, written by Peter Selinger 2001-2011
</metadata>
<g transform="translate(0.000000,126.000000) scale(0.050000,-0.050000)"
fill="#000000" stroke="none">
<path d="M2500 1240 c0 -1127 0 -1140 40 -1140 40 0 40 13 40 1140 0 1127 0
1140 -40 1140 -40 0 -40 -13 -40 -1140z"/>
<path d="M266 2237 c-148 -92 -179 -301 -62 -418 208 -208 537 33 401 296 -77
149 -215 199 -339 122z"/>
<path d="M1745 2240 c-183 -111 -192 -385 -15 -468 327 -156 550 305 227 469
-95 49 -131 49 -212 -1z"/>
<path d="M3150 2257 c-279 -154 -211 -518 96 -517 128 1 251 129 251 260 0
171 -215 329 -347 257z"/>
<path d="M4607 2252 c-284 -157 -177 -543 141 -507 243 27 289 343 73 490 -73
49 -146 55 -214 17z"/>
<path d="M1010 1481 c-109 -45 -183 -206 -140 -308 105 -249 371 -266 491 -31
106 208 -124 432 -351 339z"/>
<path d="M3870 1487 c-169 -46 -212 -345 -66 -461 254 -202 568 194 333 420
-38 37 -193 61 -267 41z"/>
<path d="M1737 740 c-96 -51 -167 -191 -150 -296 42 -259 363 -326 503 -104
150 237 -108 529 -353 400z"/>
<path d="M288 732 c-237 -106 -200 -459 52 -500 252 -40 397 251 221 443 -69
76 -179 100 -273 57z"/>
<path d="M3127 730 c-160 -73 -205 -306 -81 -426 83 -80 271 -93 358 -25 226
178 -15 570 -277 451z"/>
<path d="M4590 721 c-181 -92 -204 -316 -44 -442 74 -58 256 -61 318 -6 235
213 5 589 -274 448z"/>
</g>
</svg>
