<?xml version="1.0" standalone="no"?>
<!DOCTYPE svg PUBLIC "-//W3C//DTD SVG 20010904//EN"
 "http://www.w3.org/TR/2001/REC-SVG-20010904/DTD/svg10.dtd">
<svg version="1.0" xmlns="http://www.w3.org/2000/svg"
 width="257.000000pt" height="124.000000pt" viewBox="0 0 257.000000 124.000000"
 preserveAspectRatio="xMidYMid meet">
<metadata>
Created by potrace 1.10, written by Peter Selinger 2001-2011
</metadata>
<g transform="translate(0.000000,124.000000) scale(0.050000,-0.050000)"
fill="#000000" stroke="none">
<path d="M2511 2382 c-26 -43 -13 -2288 13 -2305 53 -32 56 44 51 1163 -5
1116 -11 1227 -64 1142z"/>
<path d="M290 2242 c-217 -96 -215 -419 4 -499 259 -94 457 223 269 434 -61
68 -194 100 -273 65z"/>
<path d="M1770 2247 c-74 -18 -170 -162 -170 -254 0 -272 367 -372 484 -133
106 216 -80 444 -314 387z"/>
<path d="M3110 2227 c-85 -42 -130 -130 -129 -254 1 -282 382 -349 495 -87 97
225 -146 451 -366 341z"/>
<path d="M3831 2221 c-153 -101 -172 -319 -37 -436 127 -110 335 -61 418 99
112 217 -176 472 -381 337z"/>
<path d="M4529 2172 c-148 -154 -114 -342 77 -427 165 -74 354 49 354 230 0
262 -256 380 -431 197z"/>
<path d="M1010 1472 c-134 -59 -193 -209 -131 -330 118 -232 361 -240 480 -17
116 215 -119 448 -349 347z"/>
<path d="M235 693 c-157 -145 -142 -356 30 -446 296 -153 523 271 249 463 -69
48 -219 39 -279 -17z"/>
<path d="M1719 695 c-159 -140 -159 -321 1 -435 165 -117 400 18 400 231 0
193 -262 326 -401 204z"/>
<path d="M3060 660 c-230 -230 56 -588 319 -401 215 153 114 481 -147 481 -81
0 -102 -10 -172 -80z"/>
<path d="M3824 704 c-269 -207 -41 -616 258 -463 132 67 193 213 136 325 -84
163 -275 230 -394 138z"/>
<path d="M4547 683 c-159 -145 -142 -329 41 -442 214 -132 462 127 342 358
-77 150 -266 192 -383 84z"/>
</g>
</svg>
