<?xml version="1.0" standalone="no"?>
<!DOCTYPE svg PUBLIC "-//W3C//DTD SVG 20010904//EN"
 "http://www.w3.org/TR/2001/REC-SVG-20010904/DTD/svg10.dtd">
<svg version="1.0" xmlns="http://www.w3.org/2000/svg"
 width="259.000000pt" height="123.000000pt" viewBox="0 0 259.000000 123.000000"
 preserveAspectRatio="xMidYMid meet">
<metadata>
Created by potrace 1.10, written by Peter Selinger 2001-2011
</metadata>
<g transform="translate(0.000000,123.000000) scale(0.050000,-0.050000)"
fill="#000000" stroke="none">
<path d="M2571 2381 c-20 -32 -12 -2268 8 -2288 10 -10 41 -12 70 -5 l51 13 0
1137 c0 1019 -3 1139 -32 1150 -46 18 -84 15 -97 -7z"/>
<path d="M373 2257 c-119 -69 -188 -204 -163 -318 66 -300 510 -255 510 51 0
186 -210 347 -347 267z"/>
<path d="M1090 2243 c-146 -91 -194 -213 -132 -343 105 -224 382 -216 500 14
99 193 -181 444 -368 329z"/>
<path d="M1850 2257 c-100 -53 -170 -158 -170 -254 1 -315 408 -373 512 -72
63 186 -177 415 -342 326z"/>
<path d="M3180 2225 c-107 -82 -119 -106 -119 -229 -2 -286 361 -366 490 -109
116 234 -169 495 -371 338z"/>
<path d="M3947 2251 c-176 -77 -222 -412 -63 -462 20 -6 36 -20 36 -30 0 -32
217 -22 270 13 271 177 52 607 -243 479z"/>
<path d="M4665 2240 c-241 -147 -159 -500 116 -500 162 0 259 97 259 258 0
133 -137 282 -260 282 -27 0 -79 -18 -115 -40z"/>
<path d="M396 753 c-311 -138 -220 -577 109 -525 270 44 290 392 29 522 -69
35 -67 34 -138 3z"/>
<path d="M1845 737 c-294 -143 -164 -577 152 -508 129 29 244 211 200 318 -43
105 -212 253 -264 232 -2 -1 -41 -19 -88 -42z"/>
<path d="M3989 752 c-288 -106 -275 -468 19 -523 150 -28 312 103 312 253 0
166 -191 322 -331 270z"/>
<path d="M4686 729 c-281 -141 -175 -539 133 -500 280 36 301 435 27 527 -54
18 -78 14 -160 -27z"/>
<path d="M1109 742 c-124 -53 -205 -212 -167 -327 72 -219 359 -252 493 -55
129 189 -114 473 -326 382z"/>
<path d="M3208 731 c-158 -68 -206 -310 -85 -428 85 -83 208 -102 311 -49 300
156 84 612 -226 477z"/>
</g>
</svg>
